<?xml version="1.0" standalone="no"?>
<!DOCTYPE svg PUBLIC "-//W3C//DTD SVG 20010904//EN"
 "http://www.w3.org/TR/2001/REC-SVG-20010904/DTD/svg10.dtd">
<svg version="1.0" xmlns="http://www.w3.org/2000/svg"
 width="600.000000pt" height="600.000000pt" viewBox="0 0 600.000000 600.000000"
 preserveAspectRatio="xMidYMid meet">

<g transform="translate(0.000000,600.000000) scale(0.100000,-0.100000)"
fill="#000000" stroke="none">
<path d="M2805 4459 c-323 -42 -626 -197 -865 -445 -195 -201 -323 -443 -382
-719 -33 -155 -33 -440 0 -592 95 -439 372 -804 764 -1008 123 -63 238 -105
379 -137 139 -31 445 -33 579 -5 296 63 553 201 759 408 205 204 337 447 403
740 20 89 23 131 23 299 0 216 -16 315 -77 489 -184 522 -657 902 -1208 970
-99 13 -275 12 -375 0z m416 -165 c271 -47 507 -171 709 -373 195 -196 319
-431 365 -697 20 -113 19 -336 0 -450 -82 -469 -425 -868 -875 -1018 -145 -48
-257 -66 -420 -66 -275 0 -502 68 -728 217 -221 146 -407 381 -501 633 -64
171 -76 247 -76 465 0 174 3 199 28 300 62 245 173 442 352 621 201 202 458
333 734 373 99 15 311 12 412 -5z"/>
<path d="M2100 3155 l0 -405 105 0 105 0 0 306 0 306 168 -4 c201 -4 242 -17
322 -105 68 -74 94 -158 88 -281 -6 -108 -32 -172 -96 -235 -89 -87 -107 -92
-419 -95 l-273 -3 0 -106 0 -105 273 5 c209 4 286 9 332 21 154 42 271 136
335 270 50 106 64 180 57 314 -10 214 -108 377 -276 461 -106 54 -157 61 -453
61 l-268 0 0 -405z"/>
<path d="M3034 3520 c24 -22 61 -65 82 -95 l37 -55 191 0 c167 0 196 -3 233
-20 79 -36 108 -129 58 -188 -34 -41 -88 -52 -254 -52 l-141 0 0 -95 0 -95
153 0 c139 0 156 -2 203 -24 65 -30 94 -70 94 -129 0 -55 -24 -88 -82 -113
-36 -15 -78 -19 -250 -22 l-206 -4 -28 -41 c-15 -23 -53 -68 -83 -101 l-56
-58 305 5 c219 3 320 9 360 19 170 44 250 140 252 302 2 107 -68 223 -152 254
-19 7 -17 11 25 40 86 60 116 177 79 301 -21 71 -85 140 -167 177 l-62 29
-318 3 -318 3 45 -41z"/>
</g>
</svg>
